<mxfile host="app.diagrams.net" modified="2023-10-04T18:43:49.921Z" agent="Mozilla/5.0 (Windows NT 10.0; Win64; x64) AppleWebKit/537.36 (KHTML, like Gecko) Chrome/118.0.0.0 Safari/537.36 Edg/118.0.2088.27" etag="IfyTq_95of1Q1D3d29V2" version="22.0.2" type="github">
  <diagram name="Page-1" id="mYm-KOlVEWPzMBDfWiTq">
    <mxGraphModel dx="1155" dy="626" grid="1" gridSize="10" guides="1" tooltips="1" connect="1" arrows="1" fold="1" page="1" pageScale="1" pageWidth="827" pageHeight="1169" math="0" shadow="0">
      <root>
        <mxCell id="0" />
        <mxCell id="1" parent="0" />
        <mxCell id="Vf5-j_HyCHXSVLQzag8Z-4" value="" style="endArrow=none;html=1;rounded=0;strokeWidth=3;fillColor=#f8cecc;strokeColor=#b85450;endFill=0;startArrow=none;startFill=0;exitX=1;exitY=0.5;exitDx=0;exitDy=0;" edge="1" parent="1" source="Vf5-j_HyCHXSVLQzag8Z-1">
          <mxGeometry width="50" height="50" relative="1" as="geometry">
            <mxPoint x="380" y="330" as="sourcePoint" />
            <mxPoint x="250" y="300" as="targetPoint" />
            <Array as="points">
              <mxPoint x="380" y="330" />
              <mxPoint x="380" y="300" />
            </Array>
          </mxGeometry>
        </mxCell>
        <mxCell id="s76aOaAWeSeIafCb-7Ol-1" value="PCL" style="rounded=1;whiteSpace=wrap;html=1;" parent="1" vertex="1">
          <mxGeometry x="300" y="160" width="60" height="60" as="geometry" />
        </mxCell>
        <mxCell id="s76aOaAWeSeIafCb-7Ol-2" value="PCH" style="rounded=1;whiteSpace=wrap;html=1;" parent="1" vertex="1">
          <mxGeometry x="440" y="160" width="60" height="60" as="geometry" />
        </mxCell>
        <mxCell id="s76aOaAWeSeIafCb-7Ol-4" value="DL" style="rounded=1;whiteSpace=wrap;html=1;" parent="1" vertex="1">
          <mxGeometry x="200" y="120" width="400" height="30" as="geometry" />
        </mxCell>
        <mxCell id="s76aOaAWeSeIafCb-7Ol-5" value="" style="endArrow=none;html=1;rounded=0;exitX=1;exitY=0.5;exitDx=0;exitDy=0;fillColor=#dae8fc;strokeColor=#6C8EBF;strokeWidth=3;" parent="1" source="s76aOaAWeSeIafCb-7Ol-1" target="s76aOaAWeSeIafCb-7Ol-4" edge="1">
          <mxGeometry width="50" height="50" relative="1" as="geometry">
            <mxPoint x="390" y="220" as="sourcePoint" />
            <mxPoint x="400" y="150" as="targetPoint" />
            <Array as="points">
              <mxPoint x="400" y="190" />
            </Array>
          </mxGeometry>
        </mxCell>
        <mxCell id="s76aOaAWeSeIafCb-7Ol-6" value="" style="endArrow=none;html=1;rounded=0;exitX=1;exitY=0.5;exitDx=0;exitDy=0;fillColor=#d5e8d4;strokeColor=#82B366;strokeWidth=3;entryX=0.85;entryY=1.02;entryDx=0;entryDy=0;entryPerimeter=0;" parent="1" source="s76aOaAWeSeIafCb-7Ol-2" target="s76aOaAWeSeIafCb-7Ol-4" edge="1">
          <mxGeometry width="50" height="50" relative="1" as="geometry">
            <mxPoint x="370" y="200" as="sourcePoint" />
            <mxPoint x="580" y="200" as="targetPoint" />
            <Array as="points">
              <mxPoint x="540" y="190" />
            </Array>
          </mxGeometry>
        </mxCell>
        <mxCell id="s76aOaAWeSeIafCb-7Ol-7" value="&lt;b style=&quot;&quot;&gt;&lt;font color=&quot;#6c8ebf&quot;&gt;ADL&lt;/font&gt;&lt;/b&gt;" style="text;strokeColor=none;align=center;fillColor=none;html=1;verticalAlign=middle;whiteSpace=wrap;rounded=0;" parent="1" vertex="1">
          <mxGeometry x="400" y="170" width="40" height="30" as="geometry" />
        </mxCell>
        <mxCell id="s76aOaAWeSeIafCb-7Ol-9" value="&lt;b style=&quot;&quot;&gt;&lt;font color=&quot;#82b366&quot;&gt;ADH&lt;/font&gt;&lt;/b&gt;" style="text;strokeColor=none;align=center;fillColor=none;html=1;verticalAlign=middle;whiteSpace=wrap;rounded=0;" parent="1" vertex="1">
          <mxGeometry x="540" y="170" width="40" height="30" as="geometry" />
        </mxCell>
        <mxCell id="s76aOaAWeSeIafCb-7Ol-11" value="ABH" style="rounded=1;whiteSpace=wrap;html=1;" parent="1" vertex="1">
          <mxGeometry x="580" y="240" width="60" height="60" as="geometry" />
        </mxCell>
        <mxCell id="s76aOaAWeSeIafCb-7Ol-13" value="" style="endArrow=none;html=1;rounded=0;exitX=0;exitY=0.5;exitDx=0;exitDy=0;fillColor=#d5e8d4;strokeColor=#82B366;strokeWidth=3;" parent="1" source="s76aOaAWeSeIafCb-7Ol-11" edge="1">
          <mxGeometry width="50" height="50" relative="1" as="geometry">
            <mxPoint x="490" y="279" as="sourcePoint" />
            <mxPoint x="540" y="190" as="targetPoint" />
            <Array as="points">
              <mxPoint x="540" y="270" />
            </Array>
          </mxGeometry>
        </mxCell>
        <mxCell id="s76aOaAWeSeIafCb-7Ol-14" value="ABL" style="rounded=1;whiteSpace=wrap;html=1;" parent="1" vertex="1">
          <mxGeometry x="580" y="330" width="60" height="60" as="geometry" />
        </mxCell>
        <mxCell id="s76aOaAWeSeIafCb-7Ol-16" value="" style="endArrow=none;html=1;rounded=0;exitX=0;exitY=0.5;exitDx=0;exitDy=0;fillColor=#dae8fc;strokeColor=#6C8EBF;strokeWidth=3;" parent="1" source="s76aOaAWeSeIafCb-7Ol-14" edge="1">
          <mxGeometry width="50" height="50" relative="1" as="geometry">
            <mxPoint x="370" y="200" as="sourcePoint" />
            <mxPoint x="400" y="190" as="targetPoint" />
            <Array as="points">
              <mxPoint x="400" y="360" />
            </Array>
          </mxGeometry>
        </mxCell>
        <mxCell id="s76aOaAWeSeIafCb-7Ol-17" value="X" style="rounded=1;whiteSpace=wrap;html=1;" parent="1" vertex="1">
          <mxGeometry x="580" y="420" width="40" height="60" as="geometry" />
        </mxCell>
        <mxCell id="s76aOaAWeSeIafCb-7Ol-18" value="Y" style="rounded=1;whiteSpace=wrap;html=1;" parent="1" vertex="1">
          <mxGeometry x="580" y="490" width="40" height="60" as="geometry" />
        </mxCell>
        <mxCell id="s76aOaAWeSeIafCb-7Ol-19" value="" style="endArrow=none;html=1;rounded=0;exitX=0;exitY=0.5;exitDx=0;exitDy=0;fillColor=#e1d5e7;strokeColor=#9673a6;strokeWidth=3;entryX=0;entryY=0.5;entryDx=0;entryDy=0;" parent="1" target="s76aOaAWeSeIafCb-7Ol-17" edge="1">
          <mxGeometry width="50" height="50" relative="1" as="geometry">
            <mxPoint x="580" y="520" as="sourcePoint" />
            <mxPoint x="540" y="450" as="targetPoint" />
            <Array as="points">
              <mxPoint x="540" y="520" />
              <mxPoint x="540" y="450" />
            </Array>
          </mxGeometry>
        </mxCell>
        <mxCell id="s76aOaAWeSeIafCb-7Ol-21" value="" style="triangle;whiteSpace=wrap;html=1;rotation=-90;fillColor=#f5f5f5;fontColor=#333333;strokeColor=#666666;" parent="1" vertex="1">
          <mxGeometry x="525" y="285" width="30" height="40" as="geometry" />
        </mxCell>
        <mxCell id="s76aOaAWeSeIafCb-7Ol-23" value="" style="endArrow=none;html=1;rounded=0;exitX=1;exitY=0.5;exitDx=0;exitDy=0;fillColor=#d5e8d4;strokeColor=#82B366;strokeWidth=3;" parent="1" source="s76aOaAWeSeIafCb-7Ol-21" edge="1">
          <mxGeometry width="50" height="50" relative="1" as="geometry">
            <mxPoint x="590" y="280" as="sourcePoint" />
            <mxPoint x="540" y="270" as="targetPoint" />
            <Array as="points" />
          </mxGeometry>
        </mxCell>
        <mxCell id="s76aOaAWeSeIafCb-7Ol-24" value="" style="endArrow=none;html=1;rounded=0;entryX=0;entryY=0.5;entryDx=0;entryDy=0;strokeWidth=3;fillColor=#e1d5e7;strokeColor=#9673a6;" parent="1" target="s76aOaAWeSeIafCb-7Ol-21" edge="1">
          <mxGeometry width="50" height="50" relative="1" as="geometry">
            <mxPoint x="540" y="450" as="sourcePoint" />
            <mxPoint x="390" y="340" as="targetPoint" />
          </mxGeometry>
        </mxCell>
        <mxCell id="s76aOaAWeSeIafCb-7Ol-25" value="&lt;b style=&quot;&quot;&gt;&lt;font color=&quot;#8f75a2&quot;&gt;SB&lt;/font&gt;&lt;/b&gt;" style="text;strokeColor=none;align=center;fillColor=none;html=1;verticalAlign=middle;whiteSpace=wrap;rounded=0;" parent="1" vertex="1">
          <mxGeometry x="530" y="380" width="60" height="30" as="geometry" />
        </mxCell>
        <mxCell id="s76aOaAWeSeIafCb-7Ol-26" value="ADD" style="rounded=1;whiteSpace=wrap;html=1;" parent="1" vertex="1">
          <mxGeometry x="380" y="380" width="40" height="60" as="geometry" />
        </mxCell>
        <mxCell id="s76aOaAWeSeIafCb-7Ol-27" value="ALU" style="rounded=1;whiteSpace=wrap;html=1;fillColor=#f5f5f5;fontColor=#333333;strokeColor=#666666;" parent="1" vertex="1">
          <mxGeometry x="300" y="380" width="60" height="60" as="geometry" />
        </mxCell>
        <mxCell id="s76aOaAWeSeIafCb-7Ol-28" value="BI" style="rounded=1;whiteSpace=wrap;html=1;" parent="1" vertex="1">
          <mxGeometry x="310" y="320" width="40" height="40" as="geometry" />
        </mxCell>
        <mxCell id="s76aOaAWeSeIafCb-7Ol-29" value="AI" style="rounded=1;whiteSpace=wrap;html=1;" parent="1" vertex="1">
          <mxGeometry x="310" y="460" width="40" height="40" as="geometry" />
        </mxCell>
        <mxCell id="s76aOaAWeSeIafCb-7Ol-30" value="" style="endArrow=block;html=1;rounded=0;exitX=0.5;exitY=1;exitDx=0;exitDy=0;entryX=0.5;entryY=0;entryDx=0;entryDy=0;strokeWidth=3;endFill=1;strokeColor=#808080;" parent="1" source="s76aOaAWeSeIafCb-7Ol-28" target="s76aOaAWeSeIafCb-7Ol-27" edge="1">
          <mxGeometry width="50" height="50" relative="1" as="geometry">
            <mxPoint x="320" y="410" as="sourcePoint" />
            <mxPoint x="370" y="360" as="targetPoint" />
          </mxGeometry>
        </mxCell>
        <mxCell id="s76aOaAWeSeIafCb-7Ol-31" value="" style="endArrow=block;html=1;rounded=0;exitX=0.5;exitY=0;exitDx=0;exitDy=0;entryX=0.495;entryY=0.957;entryDx=0;entryDy=0;strokeWidth=3;endFill=1;strokeColor=#808080;entryPerimeter=0;" parent="1" source="s76aOaAWeSeIafCb-7Ol-29" target="s76aOaAWeSeIafCb-7Ol-27" edge="1">
          <mxGeometry width="50" height="50" relative="1" as="geometry">
            <mxPoint x="340" y="370" as="sourcePoint" />
            <mxPoint x="340" y="390" as="targetPoint" />
          </mxGeometry>
        </mxCell>
        <mxCell id="s76aOaAWeSeIafCb-7Ol-32" value="" style="endArrow=block;html=1;rounded=0;exitX=1;exitY=0.5;exitDx=0;exitDy=0;entryX=0;entryY=0.5;entryDx=0;entryDy=0;strokeWidth=3;endFill=1;strokeColor=#808080;" parent="1" source="s76aOaAWeSeIafCb-7Ol-27" target="s76aOaAWeSeIafCb-7Ol-26" edge="1">
          <mxGeometry width="50" height="50" relative="1" as="geometry">
            <mxPoint x="350" y="380" as="sourcePoint" />
            <mxPoint x="350" y="400" as="targetPoint" />
          </mxGeometry>
        </mxCell>
        <mxCell id="s76aOaAWeSeIafCb-7Ol-33" value="" style="endArrow=classic;html=1;rounded=0;exitX=0.5;exitY=1;exitDx=0;exitDy=0;entryX=0.5;entryY=1;entryDx=0;entryDy=0;strokeColor=#808080;" parent="1" source="s76aOaAWeSeIafCb-7Ol-1" target="s76aOaAWeSeIafCb-7Ol-2" edge="1">
          <mxGeometry width="50" height="50" relative="1" as="geometry">
            <mxPoint x="390" y="350" as="sourcePoint" />
            <mxPoint x="440" y="300" as="targetPoint" />
            <Array as="points">
              <mxPoint x="330" y="230" />
              <mxPoint x="470" y="230" />
            </Array>
          </mxGeometry>
        </mxCell>
        <mxCell id="s76aOaAWeSeIafCb-7Ol-35" value="" style="endArrow=none;html=1;rounded=0;fillColor=#dae8fc;strokeColor=#6C8EBF;strokeWidth=3;exitX=0.5;exitY=0;exitDx=0;exitDy=0;endFill=0;startArrow=block;startFill=1;" parent="1" source="s76aOaAWeSeIafCb-7Ol-28" edge="1">
          <mxGeometry width="50" height="50" relative="1" as="geometry">
            <mxPoint x="330" y="300" as="sourcePoint" />
            <mxPoint x="400" y="280" as="targetPoint" />
            <Array as="points">
              <mxPoint x="330" y="280" />
            </Array>
          </mxGeometry>
        </mxCell>
        <mxCell id="s76aOaAWeSeIafCb-7Ol-36" value="" style="endArrow=none;html=1;rounded=0;fillColor=#dae8fc;strokeColor=#6C8EBF;strokeWidth=3;endFill=0;startArrow=block;startFill=1;entryX=0.5;entryY=0;entryDx=0;entryDy=0;" parent="1" target="s76aOaAWeSeIafCb-7Ol-26" edge="1">
          <mxGeometry width="50" height="50" relative="1" as="geometry">
            <mxPoint x="400" y="360" as="sourcePoint" />
            <mxPoint x="410" y="290" as="targetPoint" />
            <Array as="points" />
          </mxGeometry>
        </mxCell>
        <mxCell id="s76aOaAWeSeIafCb-7Ol-37" value="" style="endArrow=none;html=1;rounded=0;entryX=1;entryY=0.5;entryDx=0;entryDy=0;strokeWidth=3;fillColor=#e1d5e7;strokeColor=#9673a6;endFill=0;startArrow=block;startFill=1;" parent="1" target="s76aOaAWeSeIafCb-7Ol-26" edge="1">
          <mxGeometry width="50" height="50" relative="1" as="geometry">
            <mxPoint x="540" y="410" as="sourcePoint" />
            <mxPoint x="550" y="340" as="targetPoint" />
          </mxGeometry>
        </mxCell>
        <mxCell id="s76aOaAWeSeIafCb-7Ol-38" value="" style="endArrow=none;html=1;rounded=0;strokeWidth=3;fillColor=#e1d5e7;strokeColor=#9673a6;endFill=0;startArrow=block;startFill=1;exitX=1;exitY=0.5;exitDx=0;exitDy=0;" parent="1" source="s76aOaAWeSeIafCb-7Ol-29" edge="1">
          <mxGeometry width="50" height="50" relative="1" as="geometry">
            <mxPoint x="550" y="420" as="sourcePoint" />
            <mxPoint x="540" y="480" as="targetPoint" />
          </mxGeometry>
        </mxCell>
        <mxCell id="s76aOaAWeSeIafCb-7Ol-39" value="S" style="rounded=1;whiteSpace=wrap;html=1;" parent="1" vertex="1">
          <mxGeometry x="450" y="270" width="40" height="50" as="geometry" />
        </mxCell>
        <mxCell id="s76aOaAWeSeIafCb-7Ol-40" value="" style="endArrow=none;html=1;rounded=0;fillColor=#dae8fc;strokeColor=#6C8EBF;strokeWidth=3;endFill=0;startArrow=block;startFill=1;entryX=0;entryY=0.5;entryDx=0;entryDy=0;" parent="1" target="s76aOaAWeSeIafCb-7Ol-39" edge="1">
          <mxGeometry width="50" height="50" relative="1" as="geometry">
            <mxPoint x="400" y="295" as="sourcePoint" />
            <mxPoint x="410" y="390" as="targetPoint" />
            <Array as="points" />
          </mxGeometry>
        </mxCell>
        <mxCell id="s76aOaAWeSeIafCb-7Ol-41" value="" style="endArrow=none;html=1;rounded=0;entryX=0.5;entryY=1;entryDx=0;entryDy=0;strokeWidth=3;fillColor=#e1d5e7;strokeColor=#9673a6;" parent="1" target="s76aOaAWeSeIafCb-7Ol-39" edge="1">
          <mxGeometry width="50" height="50" relative="1" as="geometry">
            <mxPoint x="540" y="340" as="sourcePoint" />
            <mxPoint x="550" y="330" as="targetPoint" />
            <Array as="points">
              <mxPoint x="470" y="340" />
            </Array>
          </mxGeometry>
        </mxCell>
        <mxCell id="s76aOaAWeSeIafCb-7Ol-42" value="" style="endArrow=none;html=1;rounded=0;entryX=0.125;entryY=1.024;entryDx=0;entryDy=0;strokeWidth=3;fillColor=#f8cecc;strokeColor=#b85450;endFill=0;startArrow=block;startFill=1;entryPerimeter=0;exitX=0;exitY=0.5;exitDx=0;exitDy=0;" parent="1" source="s76aOaAWeSeIafCb-7Ol-28" target="s76aOaAWeSeIafCb-7Ol-4" edge="1">
          <mxGeometry width="50" height="50" relative="1" as="geometry">
            <mxPoint x="550" y="420" as="sourcePoint" />
            <mxPoint x="430" y="420" as="targetPoint" />
            <Array as="points">
              <mxPoint x="250" y="340" />
            </Array>
          </mxGeometry>
        </mxCell>
        <mxCell id="s76aOaAWeSeIafCb-7Ol-44" value="" style="endArrow=none;html=1;rounded=0;entryX=0.25;entryY=1;entryDx=0;entryDy=0;strokeWidth=3;fillColor=#f8cecc;strokeColor=#b85450;endFill=0;startArrow=block;startFill=1;" parent="1" target="s76aOaAWeSeIafCb-7Ol-1" edge="1">
          <mxGeometry width="50" height="50" relative="1" as="geometry">
            <mxPoint x="250" y="230" as="sourcePoint" />
            <mxPoint x="256" y="160" as="targetPoint" />
            <Array as="points">
              <mxPoint x="315" y="230" />
            </Array>
          </mxGeometry>
        </mxCell>
        <mxCell id="s76aOaAWeSeIafCb-7Ol-45" value="" style="endArrow=none;html=1;rounded=0;entryX=0.75;entryY=1;entryDx=0;entryDy=0;strokeWidth=3;fillColor=#f8cecc;strokeColor=#b85450;endFill=0;startArrow=block;startFill=1;" parent="1" target="s76aOaAWeSeIafCb-7Ol-2" edge="1">
          <mxGeometry width="50" height="50" relative="1" as="geometry">
            <mxPoint x="250" y="250" as="sourcePoint" />
            <mxPoint x="315" y="240" as="targetPoint" />
            <Array as="points">
              <mxPoint x="485" y="250" />
            </Array>
          </mxGeometry>
        </mxCell>
        <mxCell id="s76aOaAWeSeIafCb-7Ol-46" value="&lt;b style=&quot;&quot;&gt;&lt;font color=&quot;#a55a54&quot;&gt;DB&lt;/font&gt;&lt;/b&gt;" style="text;strokeColor=none;align=center;fillColor=none;html=1;verticalAlign=middle;whiteSpace=wrap;rounded=0;" parent="1" vertex="1">
          <mxGeometry x="250" y="170" width="30" height="30" as="geometry" />
        </mxCell>
        <mxCell id="s76aOaAWeSeIafCb-7Ol-48" value="AC" style="rounded=1;whiteSpace=wrap;html=1;" parent="1" vertex="1">
          <mxGeometry x="440" y="524" width="60" height="60" as="geometry" />
        </mxCell>
        <mxCell id="s76aOaAWeSeIafCb-7Ol-49" value="" style="endArrow=none;html=1;rounded=0;entryX=1;entryY=0.5;entryDx=0;entryDy=0;strokeWidth=3;fillColor=#e1d5e7;strokeColor=#9673a6;" parent="1" target="s76aOaAWeSeIafCb-7Ol-48" edge="1">
          <mxGeometry width="50" height="50" relative="1" as="geometry">
            <mxPoint x="540" y="520" as="sourcePoint" />
            <mxPoint x="550" y="330" as="targetPoint" />
            <Array as="points">
              <mxPoint x="540" y="554" />
            </Array>
          </mxGeometry>
        </mxCell>
        <mxCell id="s76aOaAWeSeIafCb-7Ol-50" value="P" style="rounded=1;whiteSpace=wrap;html=1;" parent="1" vertex="1">
          <mxGeometry x="150" y="524" width="60" height="60" as="geometry" />
        </mxCell>
        <mxCell id="s76aOaAWeSeIafCb-7Ol-51" value="" style="endArrow=none;html=1;rounded=0;strokeWidth=3;fillColor=#f8cecc;strokeColor=#b85450;endFill=0;startArrow=none;startFill=0;exitX=1;exitY=0.5;exitDx=0;exitDy=0;" parent="1" source="s76aOaAWeSeIafCb-7Ol-50" edge="1">
          <mxGeometry width="50" height="50" relative="1" as="geometry">
            <mxPoint x="320" y="350" as="sourcePoint" />
            <mxPoint x="250" y="340" as="targetPoint" />
            <Array as="points">
              <mxPoint x="250" y="554" />
            </Array>
          </mxGeometry>
        </mxCell>
        <mxCell id="s76aOaAWeSeIafCb-7Ol-52" value="" style="endArrow=none;html=1;rounded=0;entryX=0;entryY=0.5;entryDx=0;entryDy=0;strokeWidth=3;fillColor=#f8cecc;strokeColor=#b85450;endFill=0;startArrow=block;startFill=1;" parent="1" target="s76aOaAWeSeIafCb-7Ol-48" edge="1">
          <mxGeometry width="50" height="50" relative="1" as="geometry">
            <mxPoint x="250" y="554" as="sourcePoint" />
            <mxPoint x="260" y="161" as="targetPoint" />
            <Array as="points" />
          </mxGeometry>
        </mxCell>
        <mxCell id="s76aOaAWeSeIafCb-7Ol-53" value="DOR" style="rounded=1;whiteSpace=wrap;html=1;" parent="1" vertex="1">
          <mxGeometry x="120" y="120" width="60" height="60" as="geometry" />
        </mxCell>
        <mxCell id="s76aOaAWeSeIafCb-7Ol-54" value="PD" style="rounded=1;whiteSpace=wrap;html=1;" parent="1" vertex="1">
          <mxGeometry x="40" y="120" width="60" height="60" as="geometry" />
        </mxCell>
        <mxCell id="s76aOaAWeSeIafCb-7Ol-55" value="IR" style="rounded=1;whiteSpace=wrap;html=1;" parent="1" vertex="1">
          <mxGeometry x="40" y="200" width="60" height="60" as="geometry" />
        </mxCell>
        <mxCell id="s76aOaAWeSeIafCb-7Ol-57" value="" style="endArrow=none;html=1;rounded=0;strokeWidth=3;fillColor=#f8cecc;strokeColor=#b85450;endFill=0;startArrow=block;startFill=1;exitX=0.5;exitY=1;exitDx=0;exitDy=0;" parent="1" source="s76aOaAWeSeIafCb-7Ol-53" edge="1">
          <mxGeometry width="50" height="50" relative="1" as="geometry">
            <mxPoint x="260" y="240" as="sourcePoint" />
            <mxPoint x="250" y="220" as="targetPoint" />
            <Array as="points">
              <mxPoint x="150" y="220" />
            </Array>
          </mxGeometry>
        </mxCell>
        <mxCell id="s76aOaAWeSeIafCb-7Ol-58" value="" style="endArrow=block;html=1;rounded=0;exitX=0.5;exitY=1;exitDx=0;exitDy=0;strokeWidth=3;endFill=1;strokeColor=#808080;entryX=0.5;entryY=0;entryDx=0;entryDy=0;" parent="1" source="s76aOaAWeSeIafCb-7Ol-54" target="s76aOaAWeSeIafCb-7Ol-55" edge="1">
          <mxGeometry width="50" height="50" relative="1" as="geometry">
            <mxPoint x="160" y="150" as="sourcePoint" />
            <mxPoint x="160" y="130" as="targetPoint" />
          </mxGeometry>
        </mxCell>
        <mxCell id="s76aOaAWeSeIafCb-7Ol-59" value="" style="endArrow=block;html=1;rounded=0;exitX=1;exitY=0.5;exitDx=0;exitDy=0;strokeWidth=1;endFill=1;strokeColor=#808080;entryX=0.5;entryY=0;entryDx=0;entryDy=0;" parent="1" source="s76aOaAWeSeIafCb-7Ol-55" target="s76aOaAWeSeIafCb-7Ol-50" edge="1">
          <mxGeometry width="50" height="50" relative="1" as="geometry">
            <mxPoint x="80" y="190" as="sourcePoint" />
            <mxPoint x="230" y="370" as="targetPoint" />
            <Array as="points">
              <mxPoint x="240" y="230" />
              <mxPoint x="240" y="500" />
              <mxPoint x="180" y="500" />
            </Array>
          </mxGeometry>
        </mxCell>
        <mxCell id="s76aOaAWeSeIafCb-7Ol-60" value="DECODE PLA" style="rounded=1;whiteSpace=wrap;html=1;fillColor=#f5f5f5;fontColor=#333333;strokeColor=#666666;" parent="1" vertex="1">
          <mxGeometry x="40" y="280" width="180" height="130" as="geometry" />
        </mxCell>
        <mxCell id="s76aOaAWeSeIafCb-7Ol-61" value="RESET PLA" style="rounded=1;whiteSpace=wrap;html=1;fillColor=#f5f5f5;fontColor=#333333;strokeColor=#666666;" parent="1" vertex="1">
          <mxGeometry x="40" y="420" width="90" height="60" as="geometry" />
        </mxCell>
        <mxCell id="s76aOaAWeSeIafCb-7Ol-62" value="" style="endArrow=block;html=1;rounded=0;exitX=0.5;exitY=1;exitDx=0;exitDy=0;strokeWidth=3;endFill=1;strokeColor=#808080;entryX=0.168;entryY=0.002;entryDx=0;entryDy=0;entryPerimeter=0;" parent="1" source="s76aOaAWeSeIafCb-7Ol-55" target="s76aOaAWeSeIafCb-7Ol-60" edge="1">
          <mxGeometry width="50" height="50" relative="1" as="geometry">
            <mxPoint x="80" y="190" as="sourcePoint" />
            <mxPoint x="80" y="210" as="targetPoint" />
          </mxGeometry>
        </mxCell>
        <mxCell id="Vf5-j_HyCHXSVLQzag8Z-1" value="" style="triangle;whiteSpace=wrap;html=1;rotation=-180;fillColor=#f5f5f5;fontColor=#333333;strokeColor=#666666;" vertex="1" parent="1">
          <mxGeometry x="410" y="310" width="30" height="40" as="geometry" />
        </mxCell>
        <mxCell id="Vf5-j_HyCHXSVLQzag8Z-2" value="" style="endArrow=none;html=1;rounded=0;entryX=0;entryY=0.5;entryDx=0;entryDy=0;strokeWidth=3;fillColor=#e1d5e7;strokeColor=#9673a6;" edge="1" parent="1" target="Vf5-j_HyCHXSVLQzag8Z-1">
          <mxGeometry width="50" height="50" relative="1" as="geometry">
            <mxPoint x="470" y="330" as="sourcePoint" />
            <mxPoint x="480" y="330" as="targetPoint" />
            <Array as="points" />
          </mxGeometry>
        </mxCell>
      </root>
    </mxGraphModel>
  </diagram>
</mxfile>
